<svg xmlns="http://www.w3.org/2000/svg" xmlns:xlink="http://www.w3.org/1999/xlink" viewBox="0 0 1200 44" width="1200" height="44">
    <g fill="white">
		<g id="monument">
            <path d="M18,23 C21.1127899,23.1704197 23.224338,25.362885 26,25 C28.958858,25.362885 31,25 31,25 L31,14 C31,14 28.958858,14.1924653 26,14 C23.224338,14.1924653 21.1127899,12 18,12 C14.9337335,12 13,13.2975815 13,13 L13,34 L16,34 L16,24 C16.2138724,23.3755964 17.203578,23.1704197 18,23 Z" />
		</g>
		<g id="castle" transform="translate(100 0)">
			<polygon points="22 24 22 17 23 17 23 15 17.5 10 12 15 12 17 13 17 13 32 33 32 33 24" />
		</g>
		<g id="cave" transform="translate(200 0)">
			<path d="M12.5,20.5 C12.5,20.5 13.5,14 22,14 C30.5,14 31.5,20.5 31.5,20.5 L33,31 L11,31 L12.5,20.5 Z M17.5353494,25.9789047 L17,31 L27,31 L26.4646506,25.9789047 C26.2898061,24.3390201 24.8064222,23 23.1526867,23 L20.8473133,23 C19.2040069,23 17.7107611,24.3337011 17.5353494,25.9789047 Z" />
		</g>
		<g id="mine" transform="translate(300 0)">
			<path d="M23.9996338,26 L20.0003662,26 C19.0881599,24.7855533 17.6358178,24 16,24 C14.7954008,24 13.690295,24.4259816 12.8271046,25.1355229 L11,16 L33,16 L31.1728954,25.1355229 C30.309705,24.4259816 29.2045992,24 28,24 C26.3641822,24 24.9118401,24.7855533 23.9996338,26 L23.9996338,26 Z M28,32 C26.3431458,32 25,30.6568542 25,29 C25,27.3431458 26.3431458,26 28,26 C29.6568542,26 31,27.3431458 31,29 C31,30.6568542 29.6568542,32 28,32 Z M16,32 C14.3431458,32 13,30.6568542 13,29 C13,27.3431458 14.3431458,26 16,26 C17.6568542,26 19,27.3431458 19,29 C19,30.6568542 17.6568542,32 16,32 Z" />
		</g>
		<g id="tourist" transform="translate(400 0)">
			<path d="M21.5328947,13 C20.8530921,13 20.2609868,12.7555333 19.7565789,12.2666667 C19.2521711,11.7778 19,11.1888667 19,10.5 C19,9.81113333 19.2521711,9.2222 19.7565789,8.73333333 C20.2609868,8.24446667 20.8530921,8 21.5328947,8 C22.2126974,8 22.7939474,8.24446667 23.2763158,8.73333333 C23.7588158,9.22213333 24,9.811 24,10.5 C24,11.1888667 23.7588158,11.7777333 23.2763158,12.2666667 C22.7938816,12.7555333 22.2127632,13 21.5328947,13 Z M16.9599666,13.2487733 L15.3407481,19.5121996 C15.2161928,19.9024638 14.9255431,20.0585226 14.4688612,19.9804932 L12.5382545,19.5121996 C12.0815726,19.4341702 11.9154781,19.2000234 12.0400334,18.8097593 L13.6592519,12.4877963 C13.7838072,12.0975907 14.0744569,11.9414733 14.5311388,12.0195027 L16.4617455,12.4877963 C16.9184274,12.5656501 17.0845219,12.8193481 16.9599666,13.2487733 Z M27,36.4390935 L30.902439,15.4362606 C30.9837805,15.1453994 31.1667073,15 31.4512195,15 C31.8170732,15 32,15.1662153 32,15.4985836 L32,15.5609065 L28.097561,36.5637394 C28.0569512,36.8546006 27.8740244,37 27.5487805,37 C27.1829268,37 27,36.8337847 27,36.5014164 L27,36.4390935 Z M13,35.0408163 L18.3775934,14.8979592 L18.5103734,14.4081633 C18.6431535,14.0816531 18.9308216,13.7653061 19.373444,13.4591837 C19.8160664,13.1530612 20.3250124,13 20.9004149,13 L21.4979253,13.0612245 C21.8519834,13.1020612 22.2393029,13.2857347 22.659751,13.6122449 C23.0802656,13.9386939 23.3568465,14.3876531 23.4896266,14.9591837 L24.4854772,18.5102041 L28.0705394,19.3061224 C28.6902241,19.4694082 29,19.8367551 29,20.4081633 C29,20.693898 28.8783734,20.9387959 28.6348548,21.1428571 C28.3914689,21.3469184 28.0927137,21.4489796 27.7385892,21.4489796 L27.5394191,21.4489796 L23.4232365,20.5306122 L23.2240664,20.4693878 C23.0912863,20.4693878 22.9474855,20.4081633 22.7925311,20.2857143 C22.6377095,20.1632653 22.5381245,19.9999796 22.4937759,19.7959184 L22.2282158,18.755102 L21.8962656,20.0408163 L25.879668,35.0408163 L25.879668,35.3469388 C25.879668,35.795898 25.7136929,36.1836939 25.3817427,36.5102041 C25.0497925,36.8367143 24.6404315,37 24.153527,37 C23.710971,37 23.334805,36.877551 23.0248963,36.6326531 C22.7151203,36.3877551 22.5159502,36.1020204 22.4273859,35.7755102 L19.5062241,24.5102041 L16.4522822,35.8367347 C16.186722,36.6122653 15.6113195,37 14.7261411,37 C14.2393029,37 13.8298755,36.8367143 13.4979253,36.5102041 C13.1659751,36.1836939 13,35.795898 13,35.3469388 L13,35.0408163 Z" />
		</g>
		<g id="peak" transform="translate(500 0)">
			<polygon points="10 30 19 12 24.5 22.5 28 19 34 30" />
		</g>
		<g id="water" transform="translate(600 -1)">
			<path d="M37,19 L37,23 C35.1818182,23 33.8181818,21 32,21 C30.1818182,21 28.8181818,23 27,23 C25.1818182,23 23.8181818,21 22,21 C20.1818182,21 18.8181818,23 17,23 C15.1818182,23 13.8181818,21 12,21 C10.1818182,21 8.81818182,22.9756098 7,22.9756098 L7,18.9756098 C8.81818182,18.9756098 10.1818182,17 12,17 C13.8181818,17 15.1818182,19 17,19 C18.8181818,19 20.1818182,17 22,17 C23.8181818,17 25.1818182,19 27,19 C28.8181818,19 30.1818182,17 32,17 C33.8181818,17 35.1818182,19 37,19 Z M37,25 L37,29 C35.1818182,29 33.8181818,27 32,27 C30.1818182,27 28.8181818,29 27,29 C25.1818182,29 23.8181818,27 22,27 C20.1818182,27 18.8181818,29 17,29 C15.1818182,29 13.8181818,27 12,27 C10.1818182,27 8.81818182,28.9756098 7,28.9756098 L7,24.9756098 C8.81818182,24.9756098 10.1818182,23 12,23 C13.8181818,23 15.1818182,25 17,25 C18.8181818,25 20.1818182,23 22,23 C23.8181818,23 25.1818182,25 27,25 C28.8181818,25 30.1818182,23 32,23 C33.8181818,23 35.1818182,25 37,25 Z" />
		</g>
		<g id="spa" transform="translate(700 0)">
			<path d="M21.4335107,26 C21.4299368,23.8081613 21.3786357,18.497809 20.9899902,15 C20.6963844,12.3575474 20.2303698,10.4047299 19.8956677,9.24278807 C19.9070694,9.23686621 19.9188415,9.2324958 19.9310123,9.22980281 C20.5666897,9.0891487 21.2610577,9 22,9 C22.7075431,9 23.4150863,9.11124828 24.0832729,9.28126955 C23.7494282,10.4476096 23.2903886,12.3865027 23,15 C22.6113546,18.497809 22.5600534,23.8081613 22.5564795,26 L21.4335107,26 L21.4335107,26 Z M20.3949581,26 L19.5,26 C19.5,26 19.0953418,20.551465 18.5,18 C17.9046582,15.448535 16,12.0072266 16,12.0072266 C16,12.0072266 17.2730607,11.3084066 18.9744042,10.7323106 C19.8885537,15.0558465 20.2817059,23.1743227 20.3949581,26 L20.3949581,26 Z M23.5957349,26 C23.7118342,23.1527158 24.1157266,14.931379 25.0463268,10.6337988 C26.6563172,11.2195777 28,12 28,12 C28,12 26.0953418,15.448535 25.5,18 C24.9046582,20.551465 24.5,26 24.5,26 L23.5957349,26 L23.5957349,26 Z M28.0340153,33.1020459 C33.1314412,31.5429389 36,28.5 36,28.5 L36,27 L8,27 L8,28.5 C8,28.5 10.8813219,31.5564778 16,33.1124178 L16,36 L28.0340153,36 L28.0340153,33.1020459 L28.0340153,33.1020459 Z" />
		</g>
		<g id="site" transform="translate(800 -1)">
            <polygon points="10 32 13 35 27 21 33 27 33 19 24 10 20.1212498 14 24 18" />
		</g>
		<g id="construction" transform="translate(900 -1)">
            <path d="M18,18.2452144 L18,18 L26,18 L28.0311289,34 L26.0311289,34 L25.5233467,30 L18.5077822,30 L18,34 L16,34 L18,18.2452144 L18,18.2452144 Z M19.6502922,21 L18.8886189,27 L25.14251,27 L24.3808367,21 L19.6502922,21 Z M15,17 L15,15 L22,11 L28.9848812,15 L29,17 L15,17 Z" />
		</g>
		<g id="summer" transform="translate(1000 -1)">
            <path d="M29.4533038,20.639045 L25.0715656,20.639045 C24.6732258,20.639045 24.3412759,20.4036217 24.0757161,19.9327047 L22.5487467,17.3192456 L19.295638,20.709679 L22.2831868,22.4048957 C22.6372445,22.5932766 22.9028044,22.8404957 23.0798665,23.146553 C23.2569285,23.4526102 23.3454264,23.6998293 23.3454264,23.8882103 L23.2790364,24.2413804 L23.2790364,31.5166854 C23.2790364,31.9404896 23.1573436,32.2936597 22.9138915,32.5761958 C22.6704395,32.8587319 22.3495768,33 21.9512369,33 C21.5528971,33 21.2320344,32.8587319 20.9885823,32.5761958 C20.7451303,32.2936597 20.6234375,31.9404896 20.6234375,31.5166854 L20.6234375,25.654061 L15.4450196,22.5461637 C14.7811199,22.1223596 14.44917,21.4866533 14.44917,20.639045 C14.44917,20.0739727 14.6040578,19.6030557 14.9138998,19.2263644 L19.9595377,13.7169101 C20.1365998,13.4814869 20.3578776,13.3049018 20.6234375,13.1871549 C20.8889974,13.069408 21.4865071,13.0812039 21.4865071,13.0812039 C21.7963491,13.0812039 22.0840169,13.1636338 22.3495768,13.328423 C22.6151367,13.4932122 22.7921987,13.6462761 22.8806965,13.7875442 L23.0798665,14.0700803 L25.6026854,18.5200241 L29.4533038,18.5200241 C29.8516437,18.5200241 30.1393114,18.6966092 30.3163735,19.0497793 C30.4934355,19.4029495 30.4934355,19.7561196 30.3163735,20.1092897 C30.1393114,20.4624599 29.8516437,20.639045 29.4533038,20.639045 Z M13,36 C9.6862915,36 7,33.3137085 7,30 C7,26.6862915 9.6862915,24 13,24 C16.3137085,24 19,26.6862915 19,30 C19,33.3137085 16.3137085,36 13,36 Z M13,35 C15.7614237,35 18,32.7614237 18,30 C18,27.2385763 15.7614237,25 13,25 C10.2385763,25 8,27.2385763 8,30 C8,32.7614237 10.2385763,35 13,35 Z M31,36 C27.6862915,36 25,33.3137085 25,30 C25,26.6862915 27.6862915,24 31,24 C34.3137085,24 37,26.6862915 37,30 C37,33.3137085 34.3137085,36 31,36 Z M31,35 C33.7614237,35 36,32.7614237 36,30 C36,27.2385763 33.7614237,25 31,25 C28.2385763,25 26,27.2385763 26,30 C26,32.7614237 28.2385763,35 31,35 Z M24.5,14 C23.1192881,14 22,12.8807119 22,11.5 C22,10.1192881 23.1192881,9 24.5,9 C25.8807119,9 27,10.1192881 27,11.5 C27,12.8807119 25.8807119,14 24.5,14 Z" />
		</g>
		<g id="winter" transform="translate(1100 0)">
            <path d="M32.5730932,17.9631062 C31.8972458,17.9631062 31.3238199,17.7256637 30.8527542,17.2507168 C30.3816886,16.7757699 30.1461864,16.1976195 30.1461864,15.5162035 C30.1461864,14.8347876 30.3816886,14.2566372 30.8527542,13.7816903 C31.3238199,13.3067434 31.8972458,13.0693009 32.5730932,13.0693009 C33.2489407,13.0693009 33.8223665,13.3067434 34.2934322,13.7816903 C34.7644979,14.2566372 35,14.8347876 35,15.5162035 C35,16.1976195 34.7644979,16.7757699 34.2934322,17.2507168 C33.8223665,17.7256637 33.2489407,17.9631062 32.5730932,17.9631062 Z M31.8665254,34.7507168 C32.2351695,34.9571858 32.6140742,35.0087876 33.003178,34.9055841 C33.3922818,34.8023805 33.689286,34.5648761 33.8940678,34.1931947 L34.7542373,34.7507168 C34.3855932,35.3289292 33.8736081,35.7006106 33.2182203,35.8657611 C32.5628326,36.0309115 31.9484258,35.9483982 31.375,35.6179735 L6,20.4409823 L6.5529661,19.5737257 L31.8665254,34.7507168 Z M34.3241525,23.3524867 C34.6104047,23.5176991 34.8049873,23.7654867 34.907839,24.0958496 C35.0102606,24.4261504 34.9795403,24.746292 34.815678,25.0560265 C34.6518157,25.3657611 34.406053,25.5721681 34.0783898,25.6754956 C33.7507267,25.7786991 33.4435233,25.7477257 33.1567797,25.5825752 L27.6885593,22.3613363 C27.1970339,22.0722301 26.9308114,21.5973451 26.8898305,20.9365575 L26.3368644,17.2816903 L22.1588983,14.7418673 L23.2648305,18.5825752 C23.2648305,18.6238938 23.2238496,18.8923097 23.1419492,19.387885 C23.1419492,19.594354 23.0293284,19.8111681 22.8040254,20.0383274 C22.5787225,20.2654867 22.3227606,20.4409823 22.0360169,20.5648761 L15.0932203,22.8569115 C14.8064767,22.9394248 14.6016949,22.9808053 14.4788136,22.9808053 C13.9053877,22.8981681 13.4547818,22.681354 13.1271186,22.3303628 C12.7994555,21.9793097 12.656053,21.5560265 12.6970339,21.0604513 C12.8199153,20.2757699 13.2295403,19.7389381 13.9258475,19.4498319 L19.0254237,17.7772655 L17.3665254,12.1400973 C17.0388623,11.2315221 17.1617436,10.3436372 17.7351695,9.47638053 C18.2266949,8.7330177 18.912803,8.27876106 19.7934322,8.11354867 C20.6740614,7.94833628 21.4830508,8.11354867 22.220339,8.60912389 L28.4258475,12.3259381 C29.0812352,12.7801947 29.4498792,13.420292 29.5317797,14.246292 L30.0233051,20.8126637 L34.3241525,23.3524867 Z" />
		</g>
    </g>
</svg>
